<?xml version="1.0" encoding="utf-8"?>
<!-- Generator: Adobe Illustrator 19.1.0, SVG Export Plug-In . SVG Version: 6.00 Build 0)  -->
<svg version="1.1" id="Layer_2" xmlns="http://www.w3.org/2000/svg" xmlns:xlink="http://www.w3.org/1999/xlink" x="0px" y="0px"
	 viewBox="0 0 64 64" style="enable-background:new 0 0 64 64;" xml:space="preserve">
<style type="text/css">
	.st0{fill:#202020;}
</style>
<g>
	<path class="st0" d="M49.7,10C46.5,3.9,40,0,33,0c-8.6,0-16.2,5.9-18.3,14.1C14.1,14,13.6,14,13,14C5.8,14,0,19.8,0,27
		s5.8,13,13,13l36,0c8.3,0,15-6.7,15-15C64,17,57.7,10.4,49.7,10z M49,36l-36,0c-5,0-9-4-9-9s4-9,9-9c0.9,0,1.8,0.1,2.6,0.4l2.2,0.7
		l0.3-2.3C19.3,9.5,25.6,4,33,4c5.9,0,11.3,3.5,13.7,8.9l0.6,1.2l1.6-0.1c0.1,0,0.1,0,0.2,0c6.1,0,11,4.9,11,11
		C60,31.1,55.1,36,49,36z"/>
	<path class="st0" d="M13.2,44.4c-0.9-0.7-2.1-0.5-2.8,0.3l-2.5,3.2c-0.7,0.9-0.6,2.1,0.3,2.8C8.6,51,9,51.2,9.5,51.2
		c0.6,0,1.2-0.3,1.6-0.8l2.5-3.2C14.2,46.4,14.1,45.1,13.2,44.4z"/>
	<path class="st0" d="M25.2,44.4c-0.9-0.7-2.1-0.6-2.8,0.3l-9.1,11.3c-0.7,0.9-0.6,2.1,0.3,2.8c0.4,0.3,0.8,0.4,1.2,0.4
		c0.6,0,1.2-0.3,1.6-0.8l9.1-11.3C26.2,46.4,26.1,45.1,25.2,44.4z"/>
	<path class="st0" d="M37.2,44.4c-0.9-0.7-2.1-0.5-2.8,0.3L32,47.8c-0.7,0.9-0.6,2.1,0.3,2.8c0.4,0.3,0.8,0.4,1.2,0.4
		c0.6,0,1.2-0.3,1.6-0.8l2.5-3.1C38.3,46.4,38.1,45.1,37.2,44.4z"/>
	<path class="st0" d="M40.5,58.6l9.1-11.3c0.7-0.9,0.6-2.1-0.3-2.8c-0.9-0.7-2.1-0.6-2.8,0.3l-9.1,11.3c-0.7,0.9-0.6,2.1,0.3,2.8
		c0.4,0.3,0.8,0.4,1.2,0.4C39.5,59.3,40.1,59.1,40.5,58.6z"/>
	<path class="st0" d="M4.2,52.6C3.8,53,3.6,53.5,3.6,54s0.2,1,0.6,1.4C4.6,55.8,5.1,56,5.6,56c0.5,0,1-0.2,1.4-0.6
		C7.4,55,7.6,54.5,7.6,54S7.4,53,7,52.6C6.3,51.8,4.9,51.8,4.2,52.6z"/>
	<path class="st0" d="M11.2,64c0.5,0,1-0.2,1.4-0.6c0.4-0.4,0.6-0.9,0.6-1.4c0-0.5-0.2-1-0.6-1.4c-0.7-0.7-2.1-0.7-2.8,0
		c-0.4,0.4-0.6,0.9-0.6,1.4c0,0.5,0.2,1,0.6,1.4C10.2,63.8,10.7,64,11.2,64z"/>
	<path class="st0" d="M28.2,52.6c-0.4,0.4-0.6,0.9-0.6,1.4s0.2,1,0.6,1.4c0.4,0.4,0.9,0.6,1.4,0.6c0.5,0,1-0.2,1.4-0.6
		c0.4-0.4,0.6-0.9,0.6-1.4s-0.2-1-0.6-1.4C30.3,51.8,28.9,51.8,28.2,52.6z"/>
	<path class="st0" d="M36.6,63.4c0.4-0.4,0.6-0.9,0.6-1.4c0-0.5-0.2-1-0.6-1.4c-0.7-0.7-2.1-0.7-2.8,0c-0.4,0.4-0.6,0.9-0.6,1.4
		c0,0.5,0.2,1,0.6,1.4c0.4,0.4,0.9,0.6,1.4,0.6C35.7,64,36.2,63.8,36.6,63.4z"/>
</g>
</svg>
