<?xml version="1.0" encoding="utf-8"?>
<!-- Generator: Adobe Illustrator 19.1.0, SVG Export Plug-In . SVG Version: 6.00 Build 0)  -->
<svg version="1.1" id="Layer_2" xmlns="http://www.w3.org/2000/svg" xmlns:xlink="http://www.w3.org/1999/xlink" x="0px" y="0px"
	 viewBox="0 0 64 64" style="enable-background:new 0 0 64 64;" xml:space="preserve">
<style type="text/css">
	.st0{fill:#202020;}
</style>
<g>
	<path class="st0" d="M49.7,12.1C46.5,5.9,40,2,33,2C24.4,2,16.8,8,14.7,16.1C14.1,16.1,13.6,16,13,16C5.8,16,0,21.9,0,29
		s5.8,13,13,13h9c1.1,0,2-0.9,2-2s-0.9-2-2-2h-9c-5,0-9-4-9-9s4-9,9-9c0.9,0,1.8,0.1,2.6,0.4l2.2,0.7l0.3-2.3C19.3,11.5,25.6,6,33,6
		c5.9,0,11.3,3.5,13.7,8.9l0.6,1.2l1.6-0.1c0.1,0,0.1,0,0.2,0c6.1,0,11,4.9,11,11c0,6.1-4.9,11-10.9,11L42,38c-1.1,0-2,0.9-2,2
		s0.9,2,2,2l7,0c8.3,0,15-6.7,15-15C64,19,57.7,12.5,49.7,12.1z"/>
	<path class="st0" d="M37.3,34c-0.9-0.7-2.1-0.6-2.8,0.3L21.8,50h8l-7,8.7c-0.7,0.9-0.6,2.1,0.3,2.8c0.4,0.3,0.8,0.4,1.2,0.4
		c0.6,0,1.2-0.3,1.6-0.8L38.2,46h-8l7.4-9.2C38.3,35.9,38.1,34.7,37.3,34z"/>
	<path class="st0" d="M14.7,44.5c-0.9-0.7-2.1-0.6-2.8,0.3L4.5,54h6l-2.2,2.8c-0.7,0.9-0.6,2.1,0.3,2.8C8.9,59.9,9.4,60,9.8,60
		c0.6,0,1.2-0.3,1.6-0.8l7.4-9.3h-6l2.2-2.7C15.7,46.4,15.5,45.2,14.7,44.5z"/>
	<path class="st0" d="M48,44.5c-0.9-0.7-2.1-0.6-2.8,0.3L37.8,54h6l-2.2,2.8c-0.7,0.9-0.6,2.1,0.3,2.8c0.4,0.3,0.8,0.4,1.2,0.4
		c0.6,0,1.2-0.3,1.6-0.8l7.4-9.3h-6l2.2-2.7C49.1,46.4,48.9,45.2,48,44.5z"/>
</g>
</svg>
